<mxfile host="app.diagrams.net" modified="2021-07-27T22:26:37.808Z" agent="5.0 (Windows NT 10.0; Win64; x64) AppleWebKit/537.36 (KHTML, like Gecko) Chrome/92.0.4515.107 Safari/537.36" etag="FJ_uqsjqSjEasYzXXFah" version="14.8.6" type="github">
  <diagram id="piDafpqhtRUU5qUU-vj8" name="Page-1">
    <mxGraphModel dx="1488" dy="844" grid="1" gridSize="10" guides="1" tooltips="1" connect="1" arrows="1" fold="1" page="1" pageScale="1" pageWidth="827" pageHeight="1169" math="0" shadow="0">
      <root>
        <mxCell id="0" />
        <mxCell id="1" parent="0" />
        <mxCell id="iZ1icRpU1TipbdtmkRQH-5" value="" style="strokeWidth=1;shadow=0;dashed=0;align=center;html=1;shape=mxgraph.mockup.forms.rrect;rSize=0;strokeColor=#999999;fillColor=#ffffff;" vertex="1" parent="1">
          <mxGeometry x="80" y="110" width="360" height="170" as="geometry" />
        </mxCell>
        <mxCell id="iZ1icRpU1TipbdtmkRQH-6" value="" style="strokeWidth=1;shadow=0;dashed=0;align=center;html=1;shape=mxgraph.mockup.forms.anchor;fontSize=12;fontColor=#666666;align=left;resizeWidth=1;spacingLeft=0;" vertex="1" parent="iZ1icRpU1TipbdtmkRQH-5">
          <mxGeometry width="180" height="20" relative="1" as="geometry">
            <mxPoint x="10" y="10" as="offset" />
          </mxGeometry>
        </mxCell>
        <mxCell id="iZ1icRpU1TipbdtmkRQH-8" value="&lt;font style=&quot;font-size: 24px&quot;&gt;Email&lt;/font&gt;" style="strokeWidth=1;shadow=0;dashed=0;align=center;html=1;shape=mxgraph.mockup.forms.anchor;fontSize=12;fontColor=#666666;align=left;resizeWidth=1;spacingLeft=0;" vertex="1" parent="iZ1icRpU1TipbdtmkRQH-5">
          <mxGeometry width="180" height="20" relative="1" as="geometry">
            <mxPoint x="10" y="40" as="offset" />
          </mxGeometry>
        </mxCell>
        <mxCell id="iZ1icRpU1TipbdtmkRQH-9" value="&lt;font style=&quot;font-size: 24px&quot;&gt;johndoe@gmail.com&lt;/font&gt;" style="strokeWidth=1;shadow=0;dashed=0;align=center;html=1;shape=mxgraph.mockup.forms.rrect;rSize=0;strokeColor=#999999;fontColor=#666666;align=left;spacingLeft=5;resizeWidth=1;" vertex="1" parent="iZ1icRpU1TipbdtmkRQH-5">
          <mxGeometry width="240" height="25" relative="1" as="geometry">
            <mxPoint x="100" y="40" as="offset" />
          </mxGeometry>
        </mxCell>
        <mxCell id="iZ1icRpU1TipbdtmkRQH-12" value="Confirm email" style="strokeWidth=1;shadow=0;dashed=0;align=center;html=1;shape=mxgraph.mockup.forms.rrect;rSize=5;strokeColor=none;fontColor=#ffffff;fillColor=#66bbff;fontSize=16;fontStyle=1;" vertex="1" parent="iZ1icRpU1TipbdtmkRQH-5">
          <mxGeometry y="1" width="140" height="30" relative="1" as="geometry">
            <mxPoint x="10" y="-70" as="offset" />
          </mxGeometry>
        </mxCell>
        <mxCell id="iZ1icRpU1TipbdtmkRQH-17" value="" style="strokeWidth=1;shadow=0;dashed=0;align=center;html=1;shape=mxgraph.mockup.forms.rrect;rSize=0;strokeColor=#999999;fillColor=#ffffff;" vertex="1" parent="1">
          <mxGeometry x="80" y="330" width="510" height="250" as="geometry" />
        </mxCell>
        <mxCell id="iZ1icRpU1TipbdtmkRQH-18" value="" style="strokeWidth=1;shadow=0;dashed=0;align=center;html=1;shape=mxgraph.mockup.forms.anchor;fontSize=12;fontColor=#666666;align=left;resizeWidth=1;spacingLeft=0;" vertex="1" parent="iZ1icRpU1TipbdtmkRQH-17">
          <mxGeometry width="255" height="20" relative="1" as="geometry">
            <mxPoint x="10" y="10" as="offset" />
          </mxGeometry>
        </mxCell>
        <mxCell id="iZ1icRpU1TipbdtmkRQH-19" value="&lt;font style=&quot;font-size: 24px&quot;&gt;Please check your email and verify&lt;br&gt;&lt;/font&gt;" style="strokeWidth=1;shadow=0;dashed=0;align=center;html=1;shape=mxgraph.mockup.forms.anchor;fontSize=12;fontColor=#666666;align=left;resizeWidth=1;spacingLeft=0;" vertex="1" parent="iZ1icRpU1TipbdtmkRQH-17">
          <mxGeometry width="255" height="20" relative="1" as="geometry">
            <mxPoint x="20" y="120" as="offset" />
          </mxGeometry>
        </mxCell>
        <mxCell id="iZ1icRpU1TipbdtmkRQH-37" value="&lt;font style=&quot;font-size: 24px&quot;&gt;Email has been sent&lt;br&gt;&lt;/font&gt;" style="strokeWidth=1;shadow=0;dashed=0;align=center;html=1;shape=mxgraph.mockup.forms.anchor;fontSize=12;fontColor=#666666;align=left;resizeWidth=1;spacingLeft=0;" vertex="1" parent="iZ1icRpU1TipbdtmkRQH-17">
          <mxGeometry x="20" y="60" width="255" height="20" as="geometry" />
        </mxCell>
        <mxCell id="iZ1icRpU1TipbdtmkRQH-23" value="&lt;font size=&quot;3&quot;&gt;&lt;br&gt;&lt;br&gt;&lt;/font&gt;" style="strokeWidth=1;shadow=0;dashed=0;align=center;html=1;shape=mxgraph.mockup.containers.browserWindow;rSize=0;strokeColor=#666666;strokeColor2=#008cff;strokeColor3=#c4c4c4;mainText=,;recursiveResize=0;" vertex="1" parent="1">
          <mxGeometry x="79" y="640" width="540" height="380" as="geometry" />
        </mxCell>
        <mxCell id="iZ1icRpU1TipbdtmkRQH-24" value="Gmail" style="strokeWidth=1;shadow=0;dashed=0;align=center;html=1;shape=mxgraph.mockup.containers.anchor;fontSize=17;fontColor=#666666;align=left;" vertex="1" parent="iZ1icRpU1TipbdtmkRQH-23">
          <mxGeometry x="60" y="12" width="110" height="26" as="geometry" />
        </mxCell>
        <mxCell id="iZ1icRpU1TipbdtmkRQH-25" value="https://www.gmail.com" style="strokeWidth=1;shadow=0;dashed=0;align=center;html=1;shape=mxgraph.mockup.containers.anchor;rSize=0;fontSize=17;fontColor=#666666;align=left;" vertex="1" parent="iZ1icRpU1TipbdtmkRQH-23">
          <mxGeometry x="130" y="60" width="250" height="26" as="geometry" />
        </mxCell>
        <mxCell id="iZ1icRpU1TipbdtmkRQH-29" value="&lt;font style=&quot;font-size: 18px&quot;&gt;Gmail&lt;/font&gt;" style="text;html=1;strokeColor=none;fillColor=none;align=center;verticalAlign=middle;whiteSpace=wrap;rounded=0;" vertex="1" parent="iZ1icRpU1TipbdtmkRQH-23">
          <mxGeometry x="30" y="140" width="40" height="20" as="geometry" />
        </mxCell>
        <mxCell id="iZ1icRpU1TipbdtmkRQH-32" value="&lt;font size=&quot;3&quot;&gt;Please Verify your email address&amp;nbsp;&lt;/font&gt;" style="text;html=1;strokeColor=none;fillColor=none;align=center;verticalAlign=middle;whiteSpace=wrap;rounded=0;" vertex="1" parent="iZ1icRpU1TipbdtmkRQH-23">
          <mxGeometry x="90" y="220" width="250" height="20" as="geometry" />
        </mxCell>
        <mxCell id="iZ1icRpU1TipbdtmkRQH-34" value="Veriy Now" style="strokeWidth=1;shadow=0;dashed=0;align=center;html=1;shape=mxgraph.mockup.buttons.button;strokeColor=#666666;fontColor=#ffffff;mainText=;buttonStyle=round;fontSize=17;fontStyle=1;fillColor=#008cff;whiteSpace=wrap;" vertex="1" parent="iZ1icRpU1TipbdtmkRQH-23">
          <mxGeometry x="90" y="260" width="150" height="50" as="geometry" />
        </mxCell>
        <mxCell id="iZ1icRpU1TipbdtmkRQH-31" value="&lt;font&gt;&lt;font style=&quot;font-size: 18px&quot;&gt;Hello!&lt;/font&gt;&lt;br&gt;&lt;/font&gt;" style="text;html=1;strokeColor=none;fillColor=none;align=center;verticalAlign=middle;whiteSpace=wrap;rounded=0;" vertex="1" parent="1">
          <mxGeometry x="180" y="820" width="40" height="20" as="geometry" />
        </mxCell>
        <mxCell id="iZ1icRpU1TipbdtmkRQH-49" value="&lt;font size=&quot;3&quot;&gt;&lt;br&gt;&lt;br&gt;&lt;/font&gt;" style="strokeWidth=1;shadow=0;dashed=0;align=center;html=1;shape=mxgraph.mockup.containers.browserWindow;rSize=0;strokeColor=#666666;strokeColor2=#008cff;strokeColor3=#c4c4c4;mainText=,;recursiveResize=0;" vertex="1" parent="1">
          <mxGeometry x="79" y="1080" width="540" height="380" as="geometry" />
        </mxCell>
        <mxCell id="iZ1icRpU1TipbdtmkRQH-50" value="EBP Survey" style="strokeWidth=1;shadow=0;dashed=0;align=center;html=1;shape=mxgraph.mockup.containers.anchor;fontSize=17;fontColor=#666666;align=left;" vertex="1" parent="iZ1icRpU1TipbdtmkRQH-49">
          <mxGeometry x="60" y="12" width="110" height="26" as="geometry" />
        </mxCell>
        <mxCell id="iZ1icRpU1TipbdtmkRQH-51" value="https://www.ebpsurvey1.com" style="strokeWidth=1;shadow=0;dashed=0;align=center;html=1;shape=mxgraph.mockup.containers.anchor;rSize=0;fontSize=17;fontColor=#666666;align=left;" vertex="1" parent="iZ1icRpU1TipbdtmkRQH-49">
          <mxGeometry x="130" y="60" width="250" height="26" as="geometry" />
        </mxCell>
        <mxCell id="iZ1icRpU1TipbdtmkRQH-56" value="" style="strokeWidth=1;shadow=0;dashed=0;align=center;html=1;shape=mxgraph.mockup.forms.rrect;rSize=0;strokeColor=#999999;fillColor=#ffffff;" vertex="1" parent="iZ1icRpU1TipbdtmkRQH-49">
          <mxGeometry x="11" y="120" width="529" height="250" as="geometry" />
        </mxCell>
        <mxCell id="iZ1icRpU1TipbdtmkRQH-57" value="" style="strokeWidth=1;shadow=0;dashed=0;align=center;html=1;shape=mxgraph.mockup.forms.anchor;fontSize=12;fontColor=#666666;align=left;resizeWidth=1;spacingLeft=0;" vertex="1" parent="iZ1icRpU1TipbdtmkRQH-56">
          <mxGeometry width="264.5" height="20" relative="1" as="geometry">
            <mxPoint x="10" y="10" as="offset" />
          </mxGeometry>
        </mxCell>
        <mxCell id="iZ1icRpU1TipbdtmkRQH-58" value="&lt;font style=&quot;font-size: 24px&quot;&gt;New Password&lt;/font&gt;" style="strokeWidth=1;shadow=0;dashed=0;align=center;html=1;shape=mxgraph.mockup.forms.anchor;fontSize=12;fontColor=#666666;align=left;resizeWidth=1;spacingLeft=0;" vertex="1" parent="iZ1icRpU1TipbdtmkRQH-56">
          <mxGeometry width="264.5" height="20" relative="1" as="geometry">
            <mxPoint x="10" y="40" as="offset" />
          </mxGeometry>
        </mxCell>
        <mxCell id="iZ1icRpU1TipbdtmkRQH-59" value="" style="strokeWidth=1;shadow=0;dashed=0;align=center;html=1;shape=mxgraph.mockup.forms.rrect;rSize=0;strokeColor=#999999;fontColor=#666666;align=left;spacingLeft=5;resizeWidth=1;" vertex="1" parent="iZ1icRpU1TipbdtmkRQH-56">
          <mxGeometry width="244.90740740740736" height="25" relative="1" as="geometry">
            <mxPoint x="253" y="30" as="offset" />
          </mxGeometry>
        </mxCell>
        <mxCell id="iZ1icRpU1TipbdtmkRQH-60" value="Update" style="strokeWidth=1;shadow=0;dashed=0;align=center;html=1;shape=mxgraph.mockup.forms.rrect;rSize=5;strokeColor=none;fontColor=#ffffff;fillColor=#66bbff;fontSize=16;fontStyle=1;" vertex="1" parent="iZ1icRpU1TipbdtmkRQH-56">
          <mxGeometry y="1" width="140" height="30" relative="1" as="geometry">
            <mxPoint x="10" y="-70" as="offset" />
          </mxGeometry>
        </mxCell>
        <mxCell id="iZ1icRpU1TipbdtmkRQH-61" value="&lt;font style=&quot;font-size: 24px&quot;&gt;Confirm Password&lt;/font&gt;" style="strokeWidth=1;shadow=0;dashed=0;align=center;html=1;shape=mxgraph.mockup.forms.anchor;fontSize=12;fontColor=#666666;align=left;resizeWidth=1;spacingLeft=0;" vertex="1" parent="iZ1icRpU1TipbdtmkRQH-56">
          <mxGeometry x="11.25531914893617" y="96" width="264.5" height="20" as="geometry" />
        </mxCell>
        <mxCell id="iZ1icRpU1TipbdtmkRQH-62" value="" style="strokeWidth=1;shadow=0;dashed=0;align=center;html=1;shape=mxgraph.mockup.forms.rrect;rSize=0;strokeColor=#999999;fontColor=#666666;align=left;spacingLeft=5;resizeWidth=1;" vertex="1" parent="iZ1icRpU1TipbdtmkRQH-56">
          <mxGeometry x="253.2446808510638" y="90" width="244.90740740740736" height="25" as="geometry" />
        </mxCell>
      </root>
    </mxGraphModel>
  </diagram>
</mxfile>
